<svg fill="currentColor" width="24px" height="24px" viewBox="0 0 3 3" id="Layer_1" version="1.1" xml:space="preserve" xmlns="http://www.w3.org/2000/svg" xmlns:xlink="http://www.w3.org/1999/xlink"><g><path d="M2.82 1.359c0 -0.11 -0.05 -0.214 -0.135 -0.282a0.249 0.249 0 0 0 0.006 -0.051c0 -0.137 -0.102 -0.251 -0.234 -0.271a0.24 0.24 0 0 0 0.004 -0.047c0 -0.146 -0.115 -0.266 -0.26 -0.273a0.045 0.045 0 0 0 -0.007 -0.001c-0.001 0 -0.002 0 -0.004 0 -0.001 0 -0.002 0 -0.004 0 -0.014 0 -0.028 0.001 -0.042 0.004a0.288 0.288 0 0 0 -0.283 -0.235c-0.159 0 -0.289 0.13 -0.289 0.289v1.978c0 0.202 0.164 0.366 0.366 0.366 0.134 0 0.255 -0.072 0.319 -0.187 0.014 0.003 0.028 0.005 0.042 0.006 0.087 0.006 0.172 -0.023 0.238 -0.081a0.326 0.326 0 0 0 0.111 -0.225 0.318 0.318 0 0 0 -0.012 -0.109c0.114 -0.081 0.181 -0.209 0.181 -0.349 0 -0.102 -0.037 -0.199 -0.103 -0.277 0.067 -0.068 0.105 -0.159 0.105 -0.254m-0.092 0.531c0 0.105 -0.047 0.2 -0.129 0.265 -0.06 -0.096 -0.167 -0.157 -0.283 -0.157a0.045 0.045 0 0 0 0 0.09 0.245 0.245 0 0 1 0.227 0.156c0.012 0.033 0.018 0.066 0.016 0.098a0.236 0.236 0 0 1 -0.081 0.163 0.236 0.236 0 0 1 -0.173 0.059c-0.018 -0.001 -0.036 -0.005 -0.058 -0.012a0.045 0.045 0 0 0 -0.055 0.025 0.275 0.275 0 0 1 -0.254 0.168c-0.152 0 -0.276 -0.124 -0.276 -0.276V0.492a0.199 0.199 0 0 1 0.199 -0.199c0.102 0 0.186 0.077 0.197 0.177 -0.083 0.047 -0.138 0.136 -0.138 0.238a0.045 0.045 0 1 0 0.09 0c0 -0.1 0.081 -0.182 0.18 -0.184 0.1 0.002 0.18 0.084 0.18 0.184 0 0.019 -0.004 0.038 -0.011 0.059a0.045 0.045 0 0 0 -0.002 0.019l0 0.001a0.045 0.045 0 0 0 0.047 0.056 0.15 0.15 0 0 0 0.012 -0.001 0.184 0.184 0 0 1 0.184 0.184c0 0.017 -0.003 0.035 -0.01 0.055a0.045 0.045 0 0 0 0.018 0.051 0.273 0.273 0 0 1 0.12 0.217l0 0c0 0.151 -0.123 0.274 -0.274 0.274s-0.274 -0.123 -0.274 -0.274a0.045 0.045 0 1 0 -0.09 0c0 0.201 0.163 0.364 0.364 0.364 0.067 0 0.129 -0.018 0.183 -0.05 0.058 0.063 0.089 0.143 0.089 0.226"/><path d="M1.145 0.203a0.288 0.288 0 0 0 -0.283 0.235 0.24 0.24 0 0 0 -0.042 -0.004c-0.001 0 -0.002 0 -0.004 0 -0.001 0 -0.002 0 -0.004 0 -0.002 0 -0.005 0 -0.007 0.001 -0.144 0.008 -0.26 0.127 -0.26 0.273q0 0.023 0.004 0.047c-0.132 0.02 -0.234 0.134 -0.234 0.271 0 0.017 0.002 0.034 0.006 0.051a0.363 0.363 0 0 0 -0.135 0.282c0 0.095 0.038 0.186 0.105 0.254C0.226 1.691 0.19 1.788 0.19 1.89c0 0.14 0.067 0.268 0.181 0.349a0.318 0.318 0 0 0 -0.012 0.109 0.326 0.326 0 0 0 0.111 0.225 0.327 0.327 0 0 0 0.238 0.081c0.014 -0.001 0.028 -0.003 0.042 -0.006a0.365 0.365 0 0 0 0.319 0.187c0.202 0 0.366 -0.164 0.366 -0.366v-1.978c0 -0.159 -0.13 -0.289 -0.289 -0.289m0.199 2.267c0 0.152 -0.124 0.276 -0.276 0.276a0.275 0.275 0 0 1 -0.254 -0.168 0.045 0.045 0 0 0 -0.055 -0.025c-0.022 0.007 -0.04 0.011 -0.058 0.012a0.236 0.236 0 0 1 -0.173 -0.059 0.236 0.236 0 0 1 -0.081 -0.163c-0.002 -0.035 0.004 -0.07 0.018 -0.105 0 -0.001 0 -0.001 0 -0.002 0.04 -0.092 0.127 -0.149 0.228 -0.149a0.045 0.045 0 1 0 0 -0.09 0.338 0.338 0 0 0 -0.286 0.157c-0.081 -0.064 -0.128 -0.16 -0.128 -0.264 0 -0.084 0.032 -0.164 0.089 -0.226a0.361 0.361 0 0 0 0.183 0.05c0.201 0 0.364 -0.163 0.364 -0.364a0.045 0.045 0 1 0 -0.09 0c0 0.151 -0.123 0.274 -0.274 0.274s-0.274 -0.123 -0.274 -0.274l0 0a0.273 0.273 0 0 1 0.12 -0.217 0.045 0.045 0 0 0 0.018 -0.051c-0.007 -0.021 -0.01 -0.038 -0.01 -0.056 0 -0.101 0.082 -0.184 0.186 -0.184h0.001q0.005 0.001 0.009 0.001a0.045 0.045 0 0 0 0.046 -0.057q0 -0.002 0 -0.003a0.045 0.045 0 0 0 -0.002 -0.016c-0.007 -0.021 -0.011 -0.041 -0.011 -0.059 0 -0.1 0.081 -0.182 0.18 -0.184 0.1 0.002 0.18 0.084 0.18 0.184a0.045 0.045 0 1 0 0.09 0c0 -0.102 -0.056 -0.19 -0.138 -0.238 0.011 -0.1 0.095 -0.177 0.197 -0.177a0.199 0.199 0 0 1 0.199 0.199z"/></g></svg>